<?xml version="1.0" standalone="no"?>
<!DOCTYPE svg PUBLIC "-//W3C//DTD SVG 20010904//EN"
 "http://www.w3.org/TR/2001/REC-SVG-20010904/DTD/svg10.dtd">
<svg version="1.0" xmlns="http://www.w3.org/2000/svg"
 width="640.000000pt" height="640.000000pt" viewBox="0 0 640.000000 640.000000"
 preserveAspectRatio="xMidYMid meet">
<metadata>
Created by potrace 1.14, written by Peter Selinger 2001-2017
</metadata>
<g transform="translate(0.000000,640.000000) scale(0.100000,-0.100000)"
fill="#000000" stroke="none">
<path d="M850 6255 c-113 -80 -225 -159 -248 -175 l-44 -31 24 -18 c12 -9 115
-80 228 -156 113 -77 279 -190 370 -251 91 -62 166 -111 168 -109 2 2 -34 120
-81 262 -46 142 -110 340 -143 441 -32 100 -61 182 -64 182 -3 -1 -97 -66
-210 -145z"/>
<path d="M1795 5925 c1 -194 3 -356 6 -360 3 -3 62 67 130 156 68 88 165 213
215 277 65 82 88 119 79 124 -7 4 -50 21 -96 38 -46 17 -93 34 -104 39 -41 19
-210 81 -220 81 -6 0 -10 -125 -10 -355z"/>
<path d="M5644 5967 c-3 -9 -7 -21 -8 -29 -1 -7 -24 -80 -50 -163 -26 -82 -74
-235 -107 -340 -33 -104 -73 -229 -88 -277 -16 -49 -26 -88 -22 -88 6 0 149
98 629 431 73 51 131 96 130 100 -2 4 -70 60 -153 126 -308 244 -325 256 -331
240z"/>
<path d="M4650 5891 c-113 -20 -205 -41 -205 -47 0 -9 101 -186 150 -264 36
-56 168 -281 189 -322 11 -21 21 -36 23 -34 3 3 46 317 58 426 3 30 8 66 10
80 29 195 29 200 3 199 -13 0 -115 -18 -228 -38z"/>
<path d="M311 5618 c-4 -13 -40 -109 -80 -214 -39 -104 -71 -192 -71 -195 0
-2 164 -4 365 -5 275 0 362 3 353 12 -30 26 -547 424 -552 424 -4 0 -10 -10
-15 -22z"/>
<path d="M2462 5259 c-62 -12 -142 -59 -171 -100 l-26 -36 -50 28 c-162 91
-330 63 -415 -71 -16 -25 -34 -66 -40 -91 -11 -42 -15 -47 -52 -58 -22 -7 -62
-26 -88 -42 l-48 -30 -78 27 c-102 34 -179 29 -271 -16 -120 -59 -170 -151
-160 -297 7 -121 53 -213 153 -311 41 -39 72 -77 69 -82 -3 -6 -15 -1 -28 11
-45 43 -119 72 -182 73 -49 1 -73 -5 -127 -32 -104 -51 -167 -139 -191 -264
-11 -62 0 -131 30 -191 8 -16 121 -134 251 -262 130 -129 233 -237 229 -241
-3 -4 -26 11 -50 32 -55 48 -134 78 -208 78 -155 -1 -264 -144 -229 -302 24
-111 46 -138 353 -448 522 -528 551 -558 627 -649 84 -103 274 -295 370 -376
287 -242 658 -443 1000 -543 52 -15 129 -42 170 -60 41 -18 108 -46 148 -62
62 -25 79 -37 110 -79 33 -45 125 -170 371 -503 46 -61 85 -112 87 -112 30 0
238 35 294 50 41 10 75 18 76 17 0 -1 54 -74 118 -161 l118 -159 74 7 c178 15
407 78 578 160 415 200 728 581 891 1086 42 131 86 329 76 347 -12 22 -205
175 -305 242 -100 67 -274 171 -308 184 -14 5 -18 18 -18 56 0 28 -7 130 -15
228 -50 582 -147 1003 -289 1257 -45 80 -85 122 -196 202 -225 164 -471 453
-554 652 -57 139 -128 202 -224 202 -95 0 -154 -47 -208 -165 -25 -55 -59
-209 -49 -225 3 -5 1 -11 -4 -14 -11 -7 -99 124 -111 163 -27 95 -103 191
-167 212 -20 6 -57 9 -83 7 -70 -7 -113 -45 -159 -140 l-38 -78 -75 77 c-41
43 -112 118 -159 168 -46 49 -123 130 -170 180 -119 125 -225 239 -295 313
-105 114 -233 165 -352 141z"/>
<path d="M5870 4685 c-179 -69 -332 -125 -340 -125 -21 0 18 -26 50 -32 23 -5
113 -32 480 -145 63 -19 122 -36 130 -37 13 -1 15 31 16 232 0 127 -2 232 -5
232 -3 0 -152 -57 -331 -125z"/>
</g>
</svg>
